<?xml version="1.0" encoding="utf-8"?>
<!-- Generator: Adobe Illustrator 16.0.0, SVG Export Plug-In . SVG Version: 6.00 Build 0)  -->
<!DOCTYPE svg PUBLIC "-//W3C//DTD SVG 1.1//EN" "http://www.w3.org/Graphics/SVG/1.1/DTD/svg11.dtd">
<svg version="1.1" xmlns="http://www.w3.org/2000/svg" xmlns:xlink="http://www.w3.org/1999/xlink" x="0px" y="0px"
	 width="96.894px" height="164.596px" viewBox="0 0 96.894 164.596" enable-background="new 0 0 96.894 164.596"
	 xml:space="preserve">
<g id="레이어_1">
	<g>
		<path fill="#006837" stroke="#333333" stroke-miterlimit="10" d="M31.958,110.541c0,0-7.979,8.698-8.499,11.82
			c-0.521,3.123,4.134-8.326,10.765,1.189c6.631,9.517,12.579,16.356,25.626,0c13.048-16.355,12.378,9.739,12.155-1.933
			s-4.167-12.415-4.685-12.192C66.8,109.648,47.669,124.889,31.958,110.541z"/>
		<path fill="#C69C6D" stroke="#333333" stroke-miterlimit="10" d="M25.001,122.522c0,0,5.501-7.355,12.136,7.273
			c6.636,14.628,22.607-4.893,23.607-5.903c1.001-1.011,6.023-10.597,10.426-0.339c4.402,10.257-1.646,11.223-3.083,12.859
			c-1.436,1.635-17.445,10.17-24.93,8.529C35.675,143.301,22.902,131.604,25.001,122.522z"/>
		<path fill="#C69C6D" stroke="#333333" stroke-miterlimit="10" d="M35.72,109.396c0,0,14.386,20.856,28.756-3.124L35.72,109.396z"
			/>
		<path fill="#FFFFFF" stroke="#333333" stroke-miterlimit="10" d="M65.482,105.794c0,0,0.55,0.287,0.947,0.733
			c0.396,0.444,1.834,4.618,0.198,6.199c-1.637,1.582-12.507,6.934-15.869,5.645c-3.361-1.288-3.46-1.833-2.865-4.658
			c0.594-2.825,3.569-0.583,7.157-3.028C58.638,108.241,64.536,105.061,65.482,105.794z"/>
		<path fill="#C69C6D" stroke="#333333" stroke-miterlimit="10" d="M25.009,95.154c-0.031,0.1-0.626,2.25-4.145-3.862
			c-4.313-7.496,1.673-6.458,1.673-6.458S26.167,91.482,25.009,95.154z"/>
		<path fill="#C69C6D" stroke="#333333" stroke-miterlimit="10" d="M74.264,94.041c0.063,0.183,1.015,3.325,3.535-4.948
			c2.521-8.273-3.079-5.917-3.079-5.917S72.22,88.145,74.264,94.041z"/>
		<path fill="#FFFFFF" stroke="#333333" stroke-miterlimit="10" d="M32.894,106.527c0,0-0.316,0.444-0.911,3.616
			c-0.595,3.173,9.578,10.063,12.62,8.575s2.33-3.892,2.149-5.601S35.292,110.591,32.894,106.527z"/>
		<path fill="#C69C6D" stroke="#333333" stroke-miterlimit="10" d="M46.739,39.039c0,0-25.625,2.406-25.866,26.948
			c-0.24,24.542,5.054,21.654,4.211,28.873c-0.842,7.218,4.09,16.963,15.881,15.158c0,0,9.985,5.414,17.203-0.842
			s16.994,1.112,15.979-22.264C76.425,71.401,78.41,36.032,46.739,39.039z"/>
		<path fill="none" stroke="#333333" stroke-miterlimit="10" d="M47.102,88.644c0,0-0.188,3.477-1.043,4.314
			c-0.854,0.838,0.509,1.684,2.232,0.977c1.726-0.71,1.547,1.294,3.491-0.15c0,0,2.363,1.63,2.842-0.212
			c0.478-1.842-1.447-0.977-1.848-5.438"/>
		<g>
			<path fill="#147C4A" stroke="#333333" stroke-width="0.5" stroke-miterlimit="10" d="M70.948,79.856c0,0-1.704,4.393-9.042,4.49
				c-7.339,0.098,0.765,4.643,5.338,0.001"/>
			<g>
				<path fill="none" stroke="#333333" stroke-width="0.5" stroke-miterlimit="10" d="M66.74,80.388c0,0,0.199,2.406-0.894,3.401"/>
				<path fill="none" stroke="#333333" stroke-width="0.5" stroke-miterlimit="10" d="M68.768,79.765c0,0-0.281,2.17-1.745,3.315"/>
				<path fill="none" stroke="#333333" stroke-width="0.5" stroke-miterlimit="10" d="M71.022,79.071c0,0-0.539,1.74-2.037,2.829"/>
			</g>
		</g>
		<g>
			<path fill="#147C4A" stroke="#333333" stroke-width="0.5" stroke-miterlimit="10" d="M27.978,83.642c0,0,2.421,3.974,8.704,2.736
				s0.369,4.667-4.556,0.972"/>
			<g>
				<path fill="#147C4A" stroke="#333333" stroke-width="0.5" stroke-miterlimit="10" d="M32.376,82.966c0,0,0.16,2.929,1.211,3.737
					"/>
				<path fill="#147C4A" stroke="#333333" stroke-width="0.5" stroke-miterlimit="10" d="M30.593,82.92c0,0,0.531,2.482,1.913,3.344
					"/>
				<path fill="#147C4A" stroke="#333333" stroke-width="0.5" stroke-miterlimit="10" d="M28.613,82.867
					c0,0,0.689,1.884,2.092,2.666"/>
			</g>
		</g>
		<ellipse stroke="#333333" stroke-width="0.5" stroke-miterlimit="10" cx="36.889" cy="87.256" rx="1.856" ry="0.878"/>
		
			<ellipse fill="#FFFFFF" stroke="#333333" stroke-width="0.5" stroke-miterlimit="10" cx="37.713" cy="87.256" rx="1.031" ry="0.878"/>
		<ellipse stroke="#333333" stroke-width="0.5" stroke-miterlimit="10" cx="61.745" cy="85.339" rx="1.759" ry="0.915"/>
		
			<ellipse fill="#FFFFFF" stroke="#333333" stroke-width="0.5" stroke-miterlimit="10" cx="61.017" cy="85.376" rx="1.031" ry="0.878"/>
		<path fill="none" stroke="#333333" stroke-miterlimit="10" d="M53.327,80.323c0,0,1.359,2.84,3.883,2.558"/>
		<path fill="none" stroke="#333333" stroke-miterlimit="10" d="M42.778,80.387c0,0-1.98,3.005-4.053,1.704"/>
		<path fill="none" stroke="#333333" stroke-miterlimit="10" d="M41.275,104.934c0,0,12.302-10.789,15.56-1.337"/>
		<g>
			
				<rect x="49.336" y="116.516" transform="matrix(0.912 -0.4101 0.4101 0.912 -45.2037 31.7861)" fill="#FFFF00" stroke="#333333" stroke-miterlimit="10" width="4.327" height="9.516"/>
			
				<rect x="42.934" y="116.746" transform="matrix(0.9632 0.2688 -0.2688 0.9632 34.3207 -7.631)" fill="#FFFF00" stroke="#333333" stroke-miterlimit="10" width="4.181" height="9.517"/>
			<path fill="#FFFF00" stroke="#333333" stroke-miterlimit="10" d="M60.492,117.29c-0.308,1.696-1.202,3.598-2.9,3.29l-7.12-2.61
				c-1.696-0.307-0.529-0.837-0.222-2.532l0,0c0.308-1.698-0.419-2.569,1.277-2.263l6.739-0.707
				C59.963,112.774,60.798,115.593,60.492,117.29L60.492,117.29z"/>
			<path fill="#FFFF00" stroke="#333333" stroke-miterlimit="10" d="M36.798,116.87c0.343,1.803,1.2,3.839,2.637,3.565l5.97-2.547
				c1.438-0.274,0.413-0.868,0.069-2.671l0,0c-0.344-1.803,0.235-2.703-1.201-2.43l-5.801-0.948
				C37.035,112.113,36.455,115.067,36.798,116.87L36.798,116.87z"/>
			<path fill="#FCEE21" stroke="#333333" stroke-miterlimit="10" d="M52.304,115.597c0,1.478-0.827,2.268-2.306,2.268l-3.048,0.408
				c-1.479,0-2.676-1.198-2.676-2.676l0,0c0-1.479-0.104-3.197,1.375-3.197l5.241,0.521C52.37,112.92,52.304,114.118,52.304,115.597
				L52.304,115.597z"/>
		</g>
		<path fill="#C69C6D" stroke="#333333" stroke-miterlimit="10" d="M51.879,141.497c0,0,6.521-14.229,12.914-15.777
			c6.395-1.55,12.854,3.605,7.294,12.576c-5.56,8.971-17.009,10.188-17.009,10.188S55.371,145.293,51.879,141.497z"/>
		<g>
			<path fill="#C69C6D" stroke="#333333" stroke-miterlimit="10" d="M64.34,126.699c0,0,0.478,1.561-0.662,0.668
				s-0.843-3.692-0.843-3.692s-0.343-2.627,1.452-3.519c1.795-0.893,5.509-1.314,6.205,4.41c0,0,0.447,2.578-0.271,2.603
				c-0.72,0.025-0.775-0.329-0.775-0.329"/>
			<path fill="#C69C6D" stroke="#333333" stroke-miterlimit="10" d="M64.645,124.071c0,0-0.272,3.2,0.346,3.682
				c0.621,0.482,1.459-0.287,1.459-0.287"/>
			<path fill="#C69C6D" stroke="#333333" stroke-miterlimit="10" d="M67.791,127.194c0,0,0.547,1.217,1.24,0.559
				c0.694-0.657,0.496-2.715,0.471-3.408"/>
			<path fill="#C69C6D" stroke="#333333" stroke-miterlimit="10" d="M68.065,124.071c0,0,0.123,2.775-0.198,3.42
				c-0.322,0.644-1.562,1.291-1.686,0.262c-0.124-1.03,0.197-2.889,0-3.509"/>
		</g>
		<path fill="#C69C6D" stroke="#333333" stroke-miterlimit="10" d="M25.638,121.812c0,0-7.335,7.315-3.022,14.65
			c4.312,7.335,8.722,9.07,11.052,10.062s2.875-5.006,5.552-4.56c2.676,0.446-1.338-5.749-1.438-7.137
			C37.683,133.438,31.338,117.321,25.638,121.812z"/>
		<g>
			<path fill="#C69C6D" stroke="#333333" stroke-miterlimit="10" d="M26.099,124.051c-0.172,0.101,0.661,2.967-0.488,2.615
				c-1.15-0.353-0.255-3.799-0.255-3.799s1.303-4.585,5.021-1.071c0.046,0.044,0.27,0.139,0.452,0.416
				c0.184,0.28,0.453,2.103,0.453,2.103c0.498,1.054,0.125,1.878-0.143,1.596c-0.267-0.282-1.008-0.729-1.008-0.729"/>
			<path fill="#C69C6D" stroke="#333333" stroke-miterlimit="10" d="M28.974,126.011c0,0,0.484,0.765,1.037,0.352
				c0.553-0.414-0.416-3.132-0.225-3.362"/>
			<path fill="#C69C6D" stroke="#333333" stroke-miterlimit="10" d="M29.051,123.565c0.38,4.222-0.497,3.332-0.912,3.317
				c-0.415-0.016-0.575-0.776-0.575-0.776l-0.24-2.396"/>
			<path fill="#C69C6D" stroke="#333333" stroke-miterlimit="10" d="M26.107,123.813c0,0-0.213,2.964,0.665,3.075
				c0.878,0.113,1.196-0.145,0.847-3.177"/>
		</g>
		<path fill="#FFFFFF" stroke="#333333" stroke-miterlimit="10" d="M59.849,123.551c-13.047,16.356-18.995,9.517-25.626,0
			c-6.01-8.624-10.396-0.029-10.778-0.666c-0.006,0.277-0.178,1.469,0.424,1.021c0.158-0.117,0.066-0.298,0.154-0.384
			c0.2-0.192,0.221,0.001,0.411-0.042c0.224-0.051,0.165-0.161,0.353-0.291c0.206-0.146,0.613-0.223,0.781-0.396
			c0.201-0.208,0.271-0.692,0.67-0.359c-0.014-0.37,0.402-0.759,0.719-0.447c0.464-0.086,0.936-0.516,1.403-0.208
			c0.161-0.203,0.741-0.64,0.866-0.129c0.188-0.033,0.348,0.064,0.398,0.24c0.262-0.302,0.305-0.483,0.691-0.244
			c0.208,0.129,0.461,0.352,0.575,0.564c0.14-0.007,0.285-0.072,0.399-0.143c0.496,0.341,0.762,1.018,1.305,1.305
			c-0.001,0.213,0.217,0.395,0.371,0.524c0.333,0.281,0.182,0.248,0.305,0.705c0.07,0.265,0.342,0.367,0.447,0.631
			c0.052,0.134-0.003,0.272,0.037,0.401c0.055,0.181,0.191,0.351,0.303,0.521c-0.093,0.076-0.147,0.175-0.118,0.305
			c0.056,0.249,0.16,0.097,0.263,0.248c0.257,0.38,0.373,0.791,0.407,1.239c0.038,0.499,0.245,0.335,0.542,0.718
			c0.028,0.036,0.097,0.077,0.115,0.106c0.107,0.165,0.053,0.452,0.111,0.634c0.198,0.61,0.938,0.824,1.072,1.498
			c0.545,0.147,0.761,0.706,1.023,1.113c0.299,0.463,0.696,0.354,0.852,0.878c0.082,0.273-0.012,0.65,0.306,0.832
			c0.463,0.266,0.534-0.219,0.696,0.399c0.064,0.248,0.012,0.316-0.01,0.603c-0.029,0.374,0.219,0.602,0.19,0.935
			c0.508,0.024,1.602-0.37,1.888,0.347c0.836,0.054,1.432-0.215,1.836,0.611c0.322,0.655,0.461,1.303,1.184,0.652
			c0.25-0.225,0.385-0.299,0.653-0.418c0.042-0.018,0.138,0.173,0.247,0.107c0.182-0.11,0.054-0.284,0.156-0.414
			c0.527-0.663,0.934,0.332,0.992,0.93c0.107-0.193,0.265-0.384,0.433-0.528c0.576,0.334,0.651,0.212,1.307,0.045
			c0.472-0.12,0.966-0.07,1.467-0.093c-0.019-0.331,0.083-0.652,0.061-0.985c0.272,0.048,0.526,0.349,0.679,0.581
			c0.024-0.532,0.393-0.376,0.718-0.441c0.348-0.071,0.729-0.173,1.024-0.376c0.171-0.118,0.341-0.271,0.456-0.455
			c0.195-0.312,0.126-0.607,0.451-0.808c0.274-0.169,0.414-0.105,0.669-0.334c0.186-0.168,0.311-0.421,0.46-0.595
			c0.209-0.24,0.433-0.467,0.681-0.705c0.086-0.083,0.134-0.287,0.229-0.35c0.289-0.187,1.005-0.15,1.362-0.144
			c0.013-0.292-0.194-1.334,0.001-1.627c0.191-0.288,0.635-0.116,0.905-0.356c0.105-0.095,0.137-0.357,0.274-0.498
			c0.251-0.257,0.764-0.215,0.947-0.536c0.158-0.275,0.013-0.704,0.096-0.997c0.169-0.588,0.787-1.118,0.629-1.794
			c1.037-0.554,1.704-1.411,1.433-2.589c0.647-0.185,1.217-0.271,1.719-0.733c0.146-0.135,0.151-0.219,0.316-0.365
			c0.492-0.438,0.691-0.294,0.725-0.968c0.012-0.236-0.013-0.465,0.039-0.677c0.319-0.009,0.641,0,0.952-0.051
			c0.577-0.095,1.253-0.67,1.675-0.099c0.355-0.101,1.396-0.742,1.305,0.143c0.394-0.017,0.411-0.722,0.396-1.024
			c0.152,0.138,0.454,0.34,0.543,0.522c0.12,0.246,0.021,0.635,0.099,0.931c0.025,0.095-0.055,0.256,0.038,0.336
			c0.244,0.212,0.247-0.126,0.405-0.112c0.219,0.021,0.391,0.161,0.586,0.254c-0.078,0.483,0.758,1.058,0.947,1.52
			c0.137,0.339,0.259,0.646,0.301,0.998c0.033,0.285-0.042,0.486,0.158,0.687c0.032,0.033,0.977-0.406,1.031-0.5
			c0.09-0.154,0.016-0.267,0.013-0.423c-0.003-0.18-0.079-0.386-0.118-0.561c-0.119-0.529-0.258-1.055-0.428-1.57
			c-0.397-1.204-0.954-2.463-1.911-3.328C66.164,115.822,61.694,121.238,59.849,123.551z"/>
		<path fill="#C69C6D" stroke="#333333" stroke-miterlimit="10" d="M45.761,143.205c0,0,0.297-2.976,5.155-3.124
			c4.856-0.149,4.212,5.902,6.293,5.975c2.082,0.071-5.294,9.156-9.461,7.19"/>
		<path fill="#C69C6D" stroke="#333333" stroke-miterlimit="10" d="M34.808,146.634c0,0,3.172,5.986,5.799,5.539
			c2.627-0.445,1.125-0.268,1.125-0.268s-5.288-7.365,2.543-11.031c0,0,1.877-1.637-4.043-0.199S34.758,145.952,34.808,146.634z"/>
		<path fill="#C69C6D" stroke="#333333" stroke-miterlimit="10" d="M46.504,152.267c0,0-1.01,1.295,0.411,1.246
			c1.423-0.051,1.484-1.563,1.484-1.563"/>
		<path fill="#C69C6D" stroke="#333333" stroke-miterlimit="10" d="M45.959,150.772c0,0-0.446,0.509,0,1.104
			c0.446,0.596,3.595,0.808,2.741-1.586"/>
		<path fill="#C69C6D" stroke="#333333" stroke-miterlimit="10" d="M45.662,149.229c0,0-1.188,1.211,0,1.409
			c1.189,0.197,3.966,0.495,2.727-1.735"/>
		<path fill="#C69C6D" stroke="#333333" stroke-miterlimit="10" d="M45.667,147.366c0,0-0.887,1.09,0,1.536s1.928,0.893,2.721,0
			c0.792-0.892,0.227-1.144,0.227-1.144"/>
		<path fill="#C69C6D" stroke="#333333" stroke-miterlimit="10" d="M41.544,151.675c0,0-0.523,1.342,0.359,0.994
			c0.883-0.347,1.071-1.586,1.071-1.586s1.345,0.59,1.581-2.691c0.238-3.281,2.209-6.916,2.246-8.313
			c0.037-1.398-1.338-0.896-1.338-0.896"/>
		<path fill="#C69C6D" stroke="#333333" stroke-miterlimit="10" d="M40.904,150.687c0,0-0.496,1.884,1.141,1.09
			c1.635-0.793,0.617-1.734,0.617-1.734"/>
		<path fill="#C69C6D" stroke="#333333" stroke-miterlimit="10" d="M40.706,149.333c0,0-1.188,1.006,0.198,1.354
			c1.389,0.347,1.956-0.59,1.697-1.955"/>
		<path fill="#C69C6D" stroke="#333333" stroke-miterlimit="10" d="M40.138,147.068c0,0-0.988,2.775,1.352,2.182
			c2.338-0.596,1.531-2.346,1.545-2.616"/>
		<path fill="#C69C6D" stroke="#333333" stroke-miterlimit="10" d="M42.662,140.382c0,0,3.396-2.482,3.1-0.302
			s-1.239,1.651-2.23,5.113c-0.138,0.481,0.198,1.23-1.189,2.123c-1.388,0.892-3.023-0.198-2.886-2.28
			c0.139-2.082,2.39-2.279,2.39-2.279"/>
		<path fill="#C69C6D" stroke="#333333" stroke-miterlimit="10" d="M46.964,141.983c0,0-1.312,0.825-1.523,2.042
			c-0.211,1.218-1.1,2.864,0.592,3.522c1.693,0.658,3.345,0.404,3.429-0.865c0.086-1.271,0-2.37-1.819-2.158"/>
		<path fill="#352310" stroke="#333333" stroke-miterlimit="10" d="M26.419,47.059c3.728,2.09,19.063-9.28,34.95-4.77
			c15.886,4.51,6.742-10.464-16.188-6.266C22.253,40.222,22.692,44.968,26.419,47.059z"/>
		<path fill="#352310" stroke="#333333" stroke-miterlimit="10" d="M41.275,36.65c0,0-31.238,0.23-28.005,43.836
			c0,0,0.902,10.57,1.278,6.106c0.375-4.462-0.094,4.652,2.066,6.438c2.162,1.785,0.67-1.631,1.416-2.836s-0.93,0.406,2.398,4.581
			c3.328,4.174-1.422-3.986,0.436-6.643c1.859-2.656,0.59,4.895,4.137,8.842c0,0-5.443-26.685,2.153-39.935
			c7.597-13.248,10.559-13.907,10.559-13.907s5.48-4.51,5.064-5.919C42.363,35.806,41.275,36.65,41.275,36.65z"/>
		<path fill="#352310" stroke="#333333" stroke-miterlimit="10" d="M42.775,37.369c0,0-16.963,1.269-20.91,23.822
			c0,0-1.497,18.997,2.731,25.164c0,0-0.787-5.371,0.623-4.831c1.41,0.541,1.896,2.677,1.896,2.677v-3.573l0.577,4.322
			c0,0,0.951-42.58,16.644-47.58H42.775z"/>
		<path fill="#352310" stroke="#333333" stroke-miterlimit="10" d="M45.558,36.399c0,0,6.948-2.755,17.381,0.063
			c10.433,2.819,25.667,26.079,15.514,48.371l-1.385,3.987c0,0,0.461-2.59,0.449-5.956c-0.011-3.366-0.888,2.186-1.264,4.391
			c-0.376,2.204-0.007-6.911-0.975-6.77c-0.968,0.141-0.466,5.589-0.529,6.217c-0.063,0.628-0.501-4.948-0.939-5.889
			c-0.438-0.939-0.877,5.99-0.814,6.441c0.063,0.45-0.56-47.724-26.277-48.976C46.718,38.28,42.302,39.781,45.558,36.399z"/>
		<path fill="#352310" stroke="#333333" stroke-miterlimit="10" d="M20.865,13.535c1.576,3.194,6.6,6.953,11.512,10.336
			s4.301,4.698,4.513,5.263c0.211,0.563,1.565-0.564,1.828,2.255s1.483,0.343,1.606,3.884c0.124,3.54,8.333,2.126,7.817,0.437
			c-0.517-1.689,0.808-6.575-2.392-5.261c-3.199,1.316-1.196-3.194-2.949-3.006c-1.753,0.188-6.692-16.163-4.786-20.673
			c0,0-3.169,1.504-2.981,3.194c0.188,1.691-3.231-1.064-5.375-0.939c-2.143,0.125-1.74,2.631-2.706,4.135
			C25.986,14.662,20.865,13.535,20.865,13.535z"/>
		<path fill="#F7931E" stroke="#333333" stroke-miterlimit="10" d="M37.349,29.339c0,0,2.447-0.673,4.67-2.538
			c0,0,0.78-0.048,0.781,0.517c0.001,0.563-3.241,3.754-4.22,3.224S37.942,30.26,37.349,29.339z"/>
		<path fill="#F7931E" stroke="#333333" stroke-miterlimit="10" d="M43.776,29.645c0,0-1.031,2.896-3.979,3.558
			c0,0,0.081,1.322,0.277,1.318c0.197-0.004,2.895-0.418,5.238-3.921C45.313,30.6,44.657,29.531,43.776,29.645z"/>
	</g>
</g>
<g id="레이어_1_사본" display="none">
	<path display="inline" fill="#006837" stroke="#333333" stroke-miterlimit="10" d="M31.958,110.541c0,0-7.979,8.698-8.499,11.82
		c-0.521,3.123,4.134-8.326,10.765,1.189c6.631,9.517,12.579,16.356,25.626,0c13.048-16.355,12.378,9.739,12.155-1.933
		s-4.167-12.415-4.685-12.192C66.8,109.648,47.669,124.889,31.958,110.541z"/>
	<path display="inline" fill="#C69C6D" stroke="#333333" stroke-miterlimit="10" d="M25.001,122.522c0,0,5.501-7.355,12.136,7.273
		c6.636,14.628,22.607-4.893,23.607-5.903c1.001-1.011,6.023-10.597,10.426-0.339c4.402,10.257-1.646,11.223-3.083,12.859
		c-1.436,1.635-17.445,10.17-24.93,8.529C35.675,143.301,22.902,131.604,25.001,122.522z"/>
	<path display="inline" fill="#C69C6D" stroke="#333333" stroke-miterlimit="10" d="M35.72,109.396c0,0,14.386,20.856,28.756-3.124
		L35.72,109.396z"/>
	<path display="inline" fill="#FFFFFF" stroke="#333333" stroke-miterlimit="10" d="M65.482,105.794c0,0,0.55,0.287,0.947,0.733
		c0.396,0.444,1.834,4.618,0.198,6.199c-1.637,1.582-12.507,6.934-15.869,5.645c-3.361-1.288-3.46-1.833-2.865-4.658
		c0.594-2.825,3.569-0.583,7.157-3.028C58.638,108.241,64.536,105.061,65.482,105.794z"/>
	<path display="inline" fill="#FFFFFF" stroke="#333333" stroke-miterlimit="10" d="M32.894,106.527c0,0-0.316,0.444-0.911,3.616
		c-0.595,3.173,9.578,10.063,12.62,8.575s2.33-3.892,2.149-5.601S35.292,110.591,32.894,106.527z"/>
	<g display="inline">
		
			<rect x="49.336" y="116.516" transform="matrix(0.912 -0.4101 0.4101 0.912 -45.2037 31.7861)" fill="#FFFF00" stroke="#333333" stroke-miterlimit="10" width="4.327" height="9.516"/>
		
			<rect x="42.934" y="116.746" transform="matrix(0.9632 0.2688 -0.2688 0.9632 34.3207 -7.631)" fill="#FFFF00" stroke="#333333" stroke-miterlimit="10" width="4.181" height="9.517"/>
		<path fill="#FFFF00" stroke="#333333" stroke-miterlimit="10" d="M60.492,117.29c-0.308,1.696-1.202,3.598-2.9,3.29l-7.12-2.61
			c-1.696-0.307-0.529-0.837-0.222-2.532l0,0c0.308-1.698-0.419-2.569,1.277-2.263l6.739-0.707
			C59.963,112.774,60.798,115.593,60.492,117.29L60.492,117.29z"/>
		<path fill="#FFFF00" stroke="#333333" stroke-miterlimit="10" d="M36.798,116.87c0.343,1.803,1.2,3.839,2.637,3.565l5.97-2.547
			c1.438-0.274,0.413-0.868,0.069-2.671l0,0c-0.344-1.803,0.235-2.703-1.201-2.43l-5.801-0.948
			C37.035,112.113,36.455,115.067,36.798,116.87L36.798,116.87z"/>
		<path fill="#FCEE21" stroke="#333333" stroke-miterlimit="10" d="M52.304,115.597c0,1.478-0.827,2.268-2.306,2.268l-3.048,0.408
			c-1.479,0-2.676-1.198-2.676-2.676l0,0c0-1.479-0.104-3.197,1.375-3.197l5.241,0.521C52.37,112.92,52.304,114.118,52.304,115.597
			L52.304,115.597z"/>
	</g>
	<path display="inline" fill="#C69C6D" stroke="#333333" stroke-miterlimit="10" d="M51.879,141.497c0,0,6.521-14.229,12.914-15.777
		c6.395-1.55,12.854,3.605,7.294,12.576c-5.56,8.971-17.009,10.188-17.009,10.188S55.371,145.293,51.879,141.497z"/>
	<g display="inline">
		<path fill="#C69C6D" stroke="#333333" stroke-miterlimit="10" d="M64.34,126.699c0,0,0.478,1.561-0.662,0.668
			s-0.843-3.692-0.843-3.692s-0.343-2.627,1.452-3.519c1.795-0.893,5.509-1.314,6.205,4.41c0,0,0.447,2.578-0.271,2.603
			c-0.72,0.025-0.775-0.329-0.775-0.329"/>
		<path fill="#C69C6D" stroke="#333333" stroke-miterlimit="10" d="M64.645,124.071c0,0-0.272,3.2,0.346,3.682
			c0.621,0.482,1.459-0.287,1.459-0.287"/>
		<path fill="#C69C6D" stroke="#333333" stroke-miterlimit="10" d="M67.791,127.194c0,0,0.547,1.217,1.24,0.559
			c0.694-0.657,0.496-2.715,0.471-3.408"/>
		<path fill="#C69C6D" stroke="#333333" stroke-miterlimit="10" d="M68.065,124.071c0,0,0.123,2.775-0.198,3.42
			c-0.322,0.644-1.562,1.291-1.686,0.262c-0.124-1.03,0.197-2.889,0-3.509"/>
	</g>
	<path display="inline" fill="#C69C6D" stroke="#333333" stroke-miterlimit="10" d="M25.638,121.812c0,0-7.335,7.315-3.022,14.65
		c4.312,7.335,8.722,9.07,11.052,10.062s2.875-5.006,5.552-4.56c2.676,0.446-1.338-5.749-1.438-7.137
		C37.683,133.438,31.338,117.321,25.638,121.812z"/>
	<g display="inline">
		<path fill="#C69C6D" stroke="#333333" stroke-miterlimit="10" d="M26.099,124.051c-0.172,0.101,0.661,2.967-0.488,2.615
			c-1.15-0.353-0.255-3.799-0.255-3.799s1.303-4.585,5.021-1.071c0.046,0.044,0.27,0.139,0.452,0.416
			c0.184,0.28,0.453,2.103,0.453,2.103c0.498,1.054,0.125,1.878-0.143,1.596c-0.267-0.282-1.008-0.729-1.008-0.729"/>
		<path fill="#C69C6D" stroke="#333333" stroke-miterlimit="10" d="M28.974,126.011c0,0,0.484,0.765,1.037,0.352
			c0.553-0.414-0.416-3.132-0.225-3.362"/>
		<path fill="#C69C6D" stroke="#333333" stroke-miterlimit="10" d="M29.051,123.565c0.38,4.222-0.497,3.332-0.912,3.317
			c-0.415-0.016-0.575-0.776-0.575-0.776l-0.24-2.396"/>
		<path fill="#C69C6D" stroke="#333333" stroke-miterlimit="10" d="M26.107,123.813c0,0-0.213,2.964,0.665,3.075
			c0.878,0.113,1.196-0.145,0.847-3.177"/>
	</g>
	<path display="inline" fill="#FFFFFF" stroke="#333333" stroke-miterlimit="10" d="M59.849,123.551
		c-13.047,16.356-18.995,9.517-25.626,0c-6.01-8.624-10.396-0.029-10.778-0.666c-0.006,0.277-0.178,1.469,0.424,1.021
		c0.158-0.117,0.066-0.298,0.154-0.384c0.2-0.192,0.221,0.001,0.411-0.042c0.224-0.051,0.165-0.161,0.353-0.291
		c0.206-0.146,0.613-0.223,0.781-0.396c0.201-0.208,0.271-0.692,0.67-0.359c-0.014-0.37,0.402-0.759,0.719-0.447
		c0.464-0.086,0.936-0.516,1.403-0.208c0.161-0.203,0.741-0.64,0.866-0.129c0.188-0.033,0.348,0.064,0.398,0.24
		c0.262-0.302,0.305-0.483,0.691-0.244c0.208,0.129,0.461,0.352,0.575,0.564c0.14-0.007,0.285-0.072,0.399-0.143
		c0.496,0.341,0.762,1.018,1.305,1.305c-0.001,0.213,0.217,0.395,0.371,0.524c0.333,0.281,0.182,0.248,0.305,0.705
		c0.07,0.265,0.342,0.367,0.447,0.631c0.052,0.134-0.003,0.272,0.037,0.401c0.055,0.181,0.191,0.351,0.303,0.521
		c-0.093,0.076-0.147,0.175-0.118,0.305c0.056,0.249,0.16,0.097,0.263,0.248c0.257,0.38,0.373,0.791,0.407,1.239
		c0.038,0.499,0.245,0.335,0.542,0.718c0.028,0.036,0.097,0.077,0.115,0.106c0.107,0.165,0.053,0.452,0.111,0.634
		c0.198,0.61,0.938,0.824,1.072,1.498c0.545,0.147,0.761,0.706,1.023,1.113c0.299,0.463,0.696,0.354,0.852,0.878
		c0.082,0.273-0.012,0.65,0.306,0.832c0.463,0.266,0.534-0.219,0.696,0.399c0.064,0.248,0.012,0.316-0.01,0.603
		c-0.029,0.374,0.219,0.602,0.19,0.935c0.508,0.024,1.602-0.37,1.888,0.347c0.836,0.054,1.432-0.215,1.836,0.611
		c0.322,0.655,0.461,1.303,1.184,0.652c0.25-0.225,0.385-0.299,0.653-0.418c0.042-0.018,0.138,0.173,0.247,0.107
		c0.182-0.11,0.054-0.284,0.156-0.414c0.527-0.663,0.934,0.332,0.992,0.93c0.107-0.193,0.265-0.384,0.433-0.528
		c0.576,0.334,0.651,0.212,1.307,0.045c0.472-0.12,0.966-0.07,1.467-0.093c-0.019-0.331,0.083-0.652,0.061-0.985
		c0.272,0.048,0.526,0.349,0.679,0.581c0.024-0.532,0.393-0.376,0.718-0.441c0.348-0.071,0.729-0.173,1.024-0.376
		c0.171-0.118,0.341-0.271,0.456-0.455c0.195-0.312,0.126-0.607,0.451-0.808c0.274-0.169,0.414-0.105,0.669-0.334
		c0.186-0.168,0.311-0.421,0.46-0.595c0.209-0.24,0.433-0.467,0.681-0.705c0.086-0.083,0.134-0.287,0.229-0.35
		c0.289-0.187,1.005-0.15,1.362-0.144c0.013-0.292-0.194-1.334,0.001-1.627c0.191-0.288,0.635-0.116,0.905-0.356
		c0.105-0.095,0.137-0.357,0.274-0.498c0.251-0.257,0.764-0.215,0.947-0.536c0.158-0.275,0.013-0.704,0.096-0.997
		c0.169-0.588,0.787-1.118,0.629-1.794c1.037-0.554,1.704-1.411,1.433-2.589c0.647-0.185,1.217-0.271,1.719-0.733
		c0.146-0.135,0.151-0.219,0.316-0.365c0.492-0.438,0.691-0.294,0.725-0.968c0.012-0.236-0.013-0.465,0.039-0.677
		c0.319-0.009,0.641,0,0.952-0.051c0.577-0.095,1.253-0.67,1.675-0.099c0.355-0.101,1.396-0.742,1.305,0.143
		c0.394-0.017,0.411-0.722,0.396-1.024c0.152,0.138,0.454,0.34,0.543,0.522c0.12,0.246,0.021,0.635,0.099,0.931
		c0.025,0.095-0.055,0.256,0.038,0.336c0.244,0.212,0.247-0.126,0.405-0.112c0.219,0.021,0.391,0.161,0.586,0.254
		c-0.078,0.483,0.758,1.058,0.947,1.52c0.137,0.339,0.259,0.646,0.301,0.998c0.033,0.285-0.042,0.486,0.158,0.687
		c0.032,0.033,0.977-0.406,1.031-0.5c0.09-0.154,0.016-0.267,0.013-0.423c-0.003-0.18-0.079-0.386-0.118-0.561
		c-0.119-0.529-0.258-1.055-0.428-1.57c-0.397-1.204-0.954-2.463-1.911-3.328C66.164,115.822,61.694,121.238,59.849,123.551z"/>
	<path display="inline" fill="#C69C6D" stroke="#333333" stroke-miterlimit="10" d="M45.761,143.205c0,0,0.297-2.976,5.155-3.124
		c4.856-0.149,4.212,5.902,6.293,5.975c2.082,0.071-5.294,9.156-9.461,7.19"/>
	<path display="inline" fill="#C69C6D" stroke="#333333" stroke-miterlimit="10" d="M34.808,146.634c0,0,3.172,5.986,5.799,5.539
		c2.627-0.445,1.125-0.268,1.125-0.268s-5.288-7.365,2.543-11.031c0,0,1.877-1.637-4.043-0.199S34.758,145.952,34.808,146.634z"/>
	<path display="inline" fill="#C69C6D" stroke="#333333" stroke-miterlimit="10" d="M46.504,152.267c0,0-1.01,1.295,0.411,1.246
		c1.423-0.051,1.484-1.563,1.484-1.563"/>
	<path display="inline" fill="#C69C6D" stroke="#333333" stroke-miterlimit="10" d="M45.959,150.772c0,0-0.446,0.509,0,1.104
		c0.446,0.596,3.595,0.808,2.741-1.586"/>
	<path display="inline" fill="#C69C6D" stroke="#333333" stroke-miterlimit="10" d="M45.662,149.229c0,0-1.188,1.211,0,1.409
		c1.189,0.197,3.966,0.495,2.727-1.735"/>
	<path display="inline" fill="#C69C6D" stroke="#333333" stroke-miterlimit="10" d="M45.667,147.366c0,0-0.887,1.09,0,1.536
		s1.928,0.893,2.721,0c0.792-0.892,0.227-1.144,0.227-1.144"/>
	<path display="inline" fill="#C69C6D" stroke="#333333" stroke-miterlimit="10" d="M41.544,151.675c0,0-0.523,1.342,0.359,0.994
		c0.883-0.347,1.071-1.586,1.071-1.586s1.345,0.59,1.581-2.691c0.238-3.281,2.209-6.916,2.246-8.313
		c0.037-1.398-1.338-0.896-1.338-0.896"/>
	<path display="inline" fill="#C69C6D" stroke="#333333" stroke-miterlimit="10" d="M40.904,150.687c0,0-0.496,1.884,1.141,1.09
		c1.635-0.793,0.617-1.734,0.617-1.734"/>
	<path display="inline" fill="#C69C6D" stroke="#333333" stroke-miterlimit="10" d="M40.706,149.333c0,0-1.188,1.006,0.198,1.354
		c1.389,0.347,1.956-0.59,1.697-1.955"/>
	<path display="inline" fill="#C69C6D" stroke="#333333" stroke-miterlimit="10" d="M40.138,147.068c0,0-0.988,2.775,1.352,2.182
		c2.338-0.596,1.531-2.346,1.545-2.616"/>
	<path display="inline" fill="#C69C6D" stroke="#333333" stroke-miterlimit="10" d="M42.662,140.382c0,0,3.396-2.482,3.1-0.302
		s-1.239,1.651-2.23,5.113c-0.138,0.481,0.198,1.23-1.189,2.123c-1.388,0.892-3.023-0.198-2.886-2.28
		c0.139-2.082,2.39-2.279,2.39-2.279"/>
	<path display="inline" fill="#C69C6D" stroke="#333333" stroke-miterlimit="10" d="M46.964,141.983c0,0-1.312,0.825-1.523,2.042
		c-0.211,1.218-1.1,2.864,0.592,3.522c1.693,0.658,3.345,0.404,3.429-0.865c0.086-1.271,0-2.37-1.819-2.158"/>
	<g display="inline">
		<path fill="#C69C6D" stroke="#333333" stroke-miterlimit="10" d="M25.373,97.548c-0.02,0.103-0.356,2.309-4.571-3.347
			c-5.167-6.935,0.899-6.61,0.899-6.61S26.089,93.766,25.373,97.548z"/>
		<path fill="#C69C6D" stroke="#333333" stroke-miterlimit="10" d="M74.153,90.634c0.083,0.174,1.399,3.182,2.927-5.331
			c1.528-8.513-3.756-5.513-3.756-5.513S71.427,85.02,74.153,90.634z"/>
		<path fill="#C69C6D" stroke="#333333" stroke-miterlimit="10" d="M40.333,39.262c0,0-25.162,5.412-22.507,29.811
			c2.656,24.399,7.572,20.907,7.586,28.175c0.016,7.267,6.062,16.362,17.558,13.18c0,0,10.554,4.198,16.984-2.865
			s17.007-0.899,13.241-23.992C73.628,67.897,71.428,32.541,40.333,39.262z"/>
		<path fill="none" stroke="#333333" stroke-miterlimit="10" d="M46.543,88.477c0,0,0.223,3.475-0.526,4.408
			c-0.749,0.933,0.703,1.611,2.332,0.706c1.63-0.908,1.688,1.103,3.449-0.562c0,0,2.538,1.34,2.797-0.545
			c0.257-1.886-1.553-0.799-2.477-5.183"/>
		<g>
			<path fill="#147C4A" stroke="#333333" stroke-width="0.5" stroke-miterlimit="10" d="M69.186,76.939c0,0-1.174,4.563-8.449,5.525
				c-7.275,0.963,1.308,4.521,5.301-0.628"/>
			<g>
				<path fill="none" stroke="#333333" stroke-width="0.5" stroke-miterlimit="10" d="M65.071,77.963c0,0,0.481,2.366-0.486,3.482"
					/>
				<path fill="none" stroke="#333333" stroke-width="0.5" stroke-miterlimit="10" d="M67.011,77.105c0,0-0.023,2.188-1.342,3.498"
					/>
				<path fill="none" stroke="#333333" stroke-width="0.5" stroke-miterlimit="10" d="M69.167,76.15c0,0-0.33,1.792-1.689,3.05"/>
			</g>
		</g>
		<g>
			<path fill="#147C4A" stroke="#333333" stroke-width="0.5" stroke-miterlimit="10" d="M26.963,85.766c0,0,2.873,3.66,8.966,1.69
				s0.917,4.591-4.409,1.502"/>
			<g>
				<path fill="#147C4A" stroke="#333333" stroke-width="0.5" stroke-miterlimit="10" d="M31.251,84.576
					c0,0,0.504,2.889,1.644,3.568"/>
				<path fill="#147C4A" stroke="#333333" stroke-width="0.5" stroke-miterlimit="10" d="M29.475,84.74c0,0,0.82,2.402,2.294,3.095"
					/>
				<path fill="#147C4A" stroke="#333333" stroke-width="0.5" stroke-miterlimit="10" d="M27.502,84.922c0,0,0.907,1.789,2.392,2.4"
					/>
			</g>
		</g>
		
			<ellipse transform="matrix(0.993 -0.1179 0.1179 0.993 -10.1565 4.8873)" stroke="#333333" stroke-width="0.5" stroke-miterlimit="10" cx="36.238" cy="88.304" rx="1.856" ry="0.878"/>
		
			<ellipse transform="matrix(0.993 -0.1179 0.1179 0.993 -10.1422 4.9848)" fill="#FFFFFF" stroke="#333333" stroke-width="0.5" stroke-miterlimit="10" cx="37.057" cy="88.207" rx="1.031" ry="0.878"/>
		
			<ellipse transform="matrix(0.993 -0.118 0.118 0.993 -9.4216 7.7418)" stroke="#333333" stroke-width="0.5" stroke-miterlimit="10" cx="60.695" cy="83.468" rx="1.759" ry="0.915"/>
		
			<ellipse transform="matrix(0.993 -0.1179 0.1179 0.993 -9.4338 7.6512)" fill="#FFFFFF" stroke="#333333" stroke-width="0.5" stroke-miterlimit="10" cx="59.976" cy="83.591" rx="1.032" ry="0.878"/>
		<path fill="none" stroke="#333333" stroke-miterlimit="10" d="M51.744,79.48c0,0,1.685,2.66,4.157,2.082"/>
		<path fill="none" stroke="#333333" stroke-miterlimit="10" d="M41.276,80.788c0,0-1.612,3.217-3.824,2.17"/>
		<path fill="none" stroke="#333333" stroke-miterlimit="10" d="M42.678,105.341c0,0,10.943-12.165,15.293-3.163"/>
		<path fill="#352310" stroke="#333333" stroke-miterlimit="10" d="M21.101,49.622c3.948,1.636,17.835-11.464,34.144-8.858
			c16.307,2.605,5.461-11.186-16.813-4.313C16.158,43.324,17.153,47.985,21.101,49.622z"/>
		<path fill="#352310" stroke="#333333" stroke-miterlimit="10" d="M34.625,37.534c0,0-30.993,3.913-22.639,46.833
			c0,0,2.143,10.39,1.989,5.913c-0.154-4.476,0.456,4.631,2.812,6.149c2.357,1.518,0.473-1.698,1.072-2.983
			c0.599-1.284-0.875,0.514,2.922,4.267c3.797,3.752-1.882-3.791-0.351-6.647c1.533-2.857,1.163,4.791,5.151,8.292
			c0,0-8.553-25.856-2.572-39.91c5.981-14.052,8.845-15.056,8.845-15.056s4.91-5.125,4.331-6.475
			C35.606,36.567,34.625,37.534,34.625,37.534z"/>
		<path fill="#352310" stroke="#333333" stroke-miterlimit="10" d="M36.199,38.071c0,0-16.695,3.261-17.955,26.122
			c0,0,0.754,19.041,5.68,24.666c0,0-1.415-5.241,0.049-4.871c1.464,0.371,2.198,2.435,2.198,2.435l-0.421-3.548l1.083,4.224
			c0,0-4.077-42.395,10.916-49.211L36.199,38.071z"/>
		<path fill="#352310" stroke="#333333" stroke-miterlimit="10" d="M38.849,36.78c0,0,6.575-3.555,17.267-1.987
			c10.692,1.569,28.563,22.87,21.11,46.204l-0.905,4.122c0,0,0.152-2.626-0.256-5.967s-0.624,2.275-0.737,4.509
			c-0.113,2.233-0.821-6.862-1.766-6.607c-0.945,0.254,0.196,5.604,0.207,6.235c0.012,0.631-1.081-4.854-1.627-5.736
			c-0.547-0.881-0.165,6.052-0.05,6.492s-6.184-47.324-31.87-45.534C40.223,38.511,36.015,40.522,38.849,36.78z"/>
		<path fill="#352310" stroke="#333333" stroke-miterlimit="10" d="M11.631,16.987c1.942,2.986,7.374,6.126,12.65,8.906
			c5.277,2.78,4.825,4.158,5.102,4.693c0.276,0.535,1.488-0.745,2.082,2.024c0.593,2.769,1.513,0.165,2.053,3.667
			c0.541,3.501,8.525,1.128,7.814-0.488c-0.712-1.617,0.026-6.625-2.996-4.942c-3.021,1.684-1.564-3.031-3.283-2.637
			c-1.718,0.393-8.552-15.261-7.191-19.964c0,0-2.969,1.867-2.583,3.524c0.386,1.657-3.334-0.676-5.449-0.299
			c-2.113,0.377-1.417,2.818-2.199,4.425C16.85,17.502,11.631,16.987,11.631,16.987z"/>
		<path fill="#F7931E" stroke="#333333" stroke-miterlimit="10" d="M29.864,30.736c0,0,2.351-0.957,4.338-3.071
			c0,0,0.769-0.14,0.836,0.421c0.067,0.558-2.776,4.11-3.81,3.699S30.562,31.581,29.864,30.736z"/>
		<path fill="#F7931E" stroke="#333333" stroke-miterlimit="10" d="M36.282,30.282c0,0-0.682,2.998-3.531,4.002
			c0,0,0.237,1.303,0.431,1.276c0.195-0.027,2.825-0.756,4.739-4.511C37.921,31.049,37.144,30.066,36.282,30.282z"/>
	</g>
</g>
</svg>
